<svg xmlns="http://www.w3.org/2000/svg" viewBox="0 0 100 100">
  <defs>
    <linearGradient id="grad" x1="0%" y1="0%" x2="0%" y2="100%">
      <stop offset="0%" style="stop-color:#667eea;stop-opacity:1" />
      <stop offset="100%" style="stop-color:#764ba2;stop-opacity:1" />
    </linearGradient>
  </defs>

  <!-- Body -->
  <path d="M 20 35 Q 15 35 15 40 L 15 55 Q 15 70 25 75 L 35 75 Q 40 75 42 70 L 45 55 L 55 55 L 58 70 Q 60 75 65 75 L 75 75 Q 85 70 85 55 L 85 40 Q 85 35 80 35 L 20 35 Z"
        fill="url(#grad)" stroke="#4a5568" stroke-width="2"/>

  <!-- D-pad left -->
  <rect x="22" y="45" width="8" height="3" fill="#ffffff" rx="1"/>
  <!-- D-pad right -->
  <rect x="35" y="45" width="8" height="3" fill="#ffffff" rx="1"/>
  <!-- D-pad up -->
  <rect x="30" y="40" width="3" height="8" fill="#ffffff" rx="1"/>
  <!-- D-pad down -->
  <rect x="30" y="50" width="3" height="8" fill="#ffffff" rx="1"/>

  <!-- Button A -->
  <circle cx="70" cy="48" r="4" fill="#ffffff"/>
  <!-- Button B -->
  <circle cx="62" cy="53" r="4" fill="#ffffff"/>
</svg>
